<svg width="24" height="24" viewBox="0 0 24 24" fill="none" xmlns="http://www.w3.org/2000/svg">
<path fill-rule="evenodd" clip-rule="evenodd" d="M9.54545 3.85676C9.54545 3.40489 9.17914 3.03857 8.72727 3.03857C8.2754 3.03857 7.90909 3.40489 7.90909 3.85676V4.6363H7.09091C4.83156 4.6363 3 6.46787 3 8.72721V10.4022V16.909C3 19.1684 4.83156 20.9999 7.09091 20.9999H16.9091C19.1684 20.9999 21 19.1684 21 16.909V10.4022V8.72721C21 6.46787 19.1684 4.6363 16.9091 4.6363H16.0909V3.85676C16.0909 3.40489 15.7246 3.03857 15.2727 3.03857C14.8209 3.03857 14.4545 3.40489 14.4545 3.85676V4.6363H9.54545V3.85676ZM7.90909 6.27267V7.12948C7.90909 7.58135 8.2754 7.94767 8.72727 7.94767C9.17914 7.94767 9.54545 7.58135 9.54545 7.12948V6.27267H14.4545V7.12948C14.4545 7.58135 14.8209 7.94767 15.2727 7.94767C15.7246 7.94767 16.0909 7.58135 16.0909 7.12948V6.27267H16.9091C18.2647 6.27267 19.3636 7.3716 19.3636 8.72721V9.58403H4.63636V8.72721C4.63636 7.3716 5.7353 6.27267 7.09091 6.27267H7.90909ZM4.63636 11.2204V16.909C4.63636 18.2646 5.7353 19.3636 7.09091 19.3636H16.9091C18.2647 19.3636 19.3636 18.2646 19.3636 16.909V11.2204H4.63636Z" fill="white" fill-opacity="0.6"/>
</svg>
