<svg width="18" height="18" viewBox="0 0 18 18" fill="none" xmlns="http://www.w3.org/2000/svg">
<path fill-rule="evenodd" clip-rule="evenodd" d="M18 9C18 13.9706 13.9706 18 9 18C4.02944 18 0 13.9706 0 9C0 4.02944 4.02944 0 9 0C13.9706 0 18 4.02944 18 9ZM7.875 5.625C7.875 5.00368 8.37868 4.5 9 4.5H9.009C9.63032 4.5 10.134 5.00368 10.134 5.625C10.134 6.24632 9.63032 6.75 9.009 6.75H9C8.37868 6.75 7.875 6.24632 7.875 5.625ZM6 7.84375C6 7.37776 6.37776 7 6.84375 7H8.64375C9.10974 7 9.4875 7.37776 9.4875 7.84375V11.5H10.4438C10.9097 11.5 11.2875 11.8778 11.2875 12.3438C11.2875 12.8097 10.9097 13.1875 10.4438 13.1875H6.84375C6.37776 13.1875 6 12.8097 6 12.3438C6 11.8778 6.37776 11.5 6.84375 11.5H7.8V8.6875H6.84375C6.37776 8.6875 6 8.30974 6 7.84375Z" fill="white" fill-opacity="0.5"/>
</svg>
